<svg xmlns="http://www.w3.org/2000/svg" viewBox="0 0 64 64">
  <rect width="64" height="64" rx="14" fill="#2F3437"/>
  <g fill="none" stroke="#C8B38A" stroke-width="4" stroke-linecap="round">
    <circle cx="32" cy="32" r="22" opacity=".62"/>
    <path d="M49 31c0 10-8 18-18 18S13 41 13 31s8-18 18-18c8 0 14 5 14 12 0 8-6 14-14 14-6 0-11-5-11-11s5-10 10-10c5 0 9 4 9 8 0 5-4 8-8 8-3 0-6-2-6-5"/>
    <path d="M43 14c7 5 11 13 9 22" opacity=".8"/>
    <path d="M18 49c-7-6-9-15-6-24" opacity=".8"/>
  </g>
</svg>
